#!OML:ASF X:\für Bonn\!DataBase\2005_08_10_Bjorn_Final\c3d\bjorn.ASF
:FULLY-SPECIFIED
:DEGREES
95
root 3.11056 19.3061 3.91337 -215.124 -50.701 -152.801
lowerback 39.4019 0.899317 -2.28821
upperback 20.7365 -4.94345 -1.01706
thorax 3.83754 -4.80722 1.42926
lowerneck -11.5726 -11.2777 -6.58863
upperneck -1.31161 -18.0673 31.7126
head 5.54989 -8.96716 9.23918
rclavicle 7.95139e-014 8.5875e-014
rhumerus -49.6594 -4.20377 -93.4057
rradius 28.7586
rwrist 18.5556
rhand -7.16797 11.8134
rfingers 7.12502
rthumb 18.7093 -17.3069
lclavicle 7.95139e-014 8.5875e-014
lhumerus 64.3354 -27.5764 85.0865
lradius 116.892
lwrist 4.63978
lhand -40.9124 -26.3384
lfingers 7.12502
lthumb -13.8472 3.18061
rfemur -91.584 -12.4678 16.8526
rtibia 124.403
rfoot 9.00617 18.6974
rtoes -17.4905
lfemur -3.67459 -26.2079 -5.04451
ltibia 27.1386
lfoot -1.68286 -21.8191
ltoes 8.47406
96
root 3.09636 19.2947 3.91202 -214.69 -50.4344 -153.186
lowerback 38.995 0.964154 -2.36695
upperback 20.7284 -4.85116 -1.0253
thorax 3.94737 -4.75904 1.41638
lowerneck -11.5729 -11.23 -6.66704
upperneck -1.33817 -17.9838 31.7211
head 5.53439 -8.92796 9.27056
rclavicle -4.45278e-014 -6.67916e-014
rhumerus -49.6159 -4.20244 -93.2447
rradius 28.7521
rwrist 18.7833
rhand -7.17444 11.747
rfingers 7.12502
rthumb 18.703 -17.3738
lclavicle -4.45278e-014 -6.67916e-014
lhumerus 64.1238 -27.37 84.8732
lradius 117.153
lwrist 4.15236
lhand -40.9481 -26.2322
lfingers 7.12502
lthumb -13.8816 3.28445
rfemur -91.13 -12.0062 16.9834
rtibia 123.954
rfoot 9.13053 18.9982
rtoes -17.7099
lfemur -3.79909 -26.0798 -5.16849
ltibia 27.4939
lfoot -2.08383 -21.6073
ltoes 8.19846
97
root 3.07942 19.2867 3.91182 -214.216 -50.1236 -153.59
lowerback 38.5083 1.0284 -2.44212
upperback 20.7283 -4.75191 -1.04087
thorax 4.09071 -4.70579 1.38823
lowerneck -11.5533 -11.1654 -6.65236
upperneck -1.41791 -17.8732 31.6918
head 5.47933 -8.88499 9.27918
rclavicle -4.13472e-014 -9.54166e-014
rhumerus -49.55 -4.21061 -93.071
rradius 28.7914
rwrist 18.9824
rhand -7.14323 11.6185
rfingers 7.12502
rthumb 18.7331 -17.4994
lclavicle -4.13472e-014 -9.54166e-014
lhumerus 63.878 -27.1963 84.6351
lradius 117.398
lwrist 3.84069
lhand -40.9823 -26.1594
lfingers 7.12502
lthumb -13.9146 3.35504
rfemur -90.6669 -11.5084 17.1405
rtibia 123.488
rfoot 9.22479 19.3159
rtoes -18.2321
lfemur -3.88042 -26.0006 -5.29567
ltibia 27.7647
lfoot -2.50322 -21.2944
ltoes 7.77471
98
root 3.05956 19.282 3.91224 -213.739 -49.7736 -154.002
lowerback 38.0033 1.07161 -2.51018
upperback 20.6979 -4.66482 -1.06969
thorax 4.20687 -4.65229 1.3487
lowerneck -11.5155 -11.0862 -6.65768
upperneck -1.43078 -17.7545 31.6529
head 5.44 -8.83157 9.29058
rclavicle -2.22639e-014 6.36111e-014
rhumerus -49.4976 -4.20547 -92.8754
rradius 28.7931
rwrist 19.1277
rhand -7.12422 11.5229
rfingers 7.12502
rthumb 18.7514 -17.5933
lclavicle -2.22639e-014 6.36111e-014
lhumerus 63.5326 -27.0375 84.5074
lradius 117.552
lwrist 3.79285
lhand -40.9693 -26.2793
lfingers 7.12502
lthumb -13.902 3.23598
rfemur -90.1522 -10.981 17.3279
rtibia 123.011
rfoot 9.22709 19.6206
rtoes -19.2394
lfemur -3.86393 -25.9209 -5.4437
ltibia 27.9189
lfoot -2.95403 -20.93
ltoes 7.13741
99
root 3.03643 19.2815 3.91313 -213.233 -49.358 -154.45
lowerback 37.4462 1.12257 -2.57548
upperback 20.6633 -4.5618 -1.10444
thorax 4.33616 -4.58921 1.29562
lowerneck -11.5415 -11.0014 -6.58419
upperneck -1.39225 -17.6461 31.5551
head 5.41387 -8.77334 9.26294
rclavicle -1.59028e-014 -4.13472e-014
rhumerus -49.4392 -4.16697 -92.6757
rradius 28.8237
rwrist 19.2495
rhand -7.10245 11.4627
rfingers 7.12502
rthumb 18.7723 -17.6515
lclavicle -1.59028e-014 -4.13472e-014
lhumerus 63.1195 -26.8811 84.433
lradius 117.681
lwrist 3.87351
lhand -40.9201 -26.432
lfingers 7.12502
lthumb -13.8546 3.08656
rfemur -89.5906 -10.3917 17.5351
rtibia 122.525
rfoot 9.15171 19.8326
rtoes -20.4896
lfemur -3.75578 -25.8145 -5.61218
ltibia 27.9593
lfoot -3.36412 -20.4873
ltoes 6.30454
100
root 3.01087 19.2895 3.91273 -212.711 -48.9324 -154.899
lowerback 36.9005 1.17705 -2.6826
upperback 20.5934 -4.45677 -1.12677
thorax 4.42852 -4.52531 1.28087
lowerneck -11.6135 -10.9047 -6.38597
upperneck -1.28833 -17.5399 31.3504
head 5.38942 -8.70604 9.17467
rclavicle 1.59028e-014 -1.27222e-013
rhumerus -49.3705 -4.18899 -92.4211
rradius 28.8091
rwrist 19.3972
rhand -7.09726 11.4435
rfingers 7.12502
rthumb 18.7773 -17.6702
lclavicle 1.59028e-014 -1.27222e-013
lhumerus 62.623 -26.6958 84.4087
lradius 117.774
lwrist 4.07987
lhand -40.8041 -26.6368
lfingers 7.12502
lthumb -13.7429 2.88939
rfemur -88.9484 -9.77265 17.7407
rtibia 122.008
rfoot 9.09464 19.8683
rtoes -21.4941
lfemur -3.60085 -25.6804 -5.77644
ltibia 27.9001
lfoot -3.76531 -20.0478
ltoes 5.46554
101
root 2.98162 19.2964 3.91092 -212.182 -48.4816 -155.386
lowerback 36.3386 1.23158 -2.80983
upperback 20.5106 -4.35199 -1.15653
thorax 4.51521 -4.46128 1.26988
lowerneck -11.7011 -10.7985 -6.12786
upperneck -1.15123 -17.4299 31.09
head 5.36436 -8.63251 9.05724
rclavicle -1.01778e-013 -9.22361e-014
rhumerus -49.2912 -4.1832 -92.1651
rradius 28.778
rwrist 19.4774
rhand -7.12824 11.4527
rfingers 7.12502
rthumb 18.7475 -17.6639
lclavicle -1.01778e-013 -9.22361e-014
lhumerus 61.9942 -26.5193 84.4335
lradius 117.856
lwrist 4.28308
lhand -40.6667 -26.7989
lfingers 7.12502
lthumb -13.6104 2.73612
rfemur -88.1749 -9.18013 17.9344
rtibia 121.477
rfoot 8.99099 19.7425
rtoes -22.1584
lfemur -3.35493 -25.5671 -5.98407
ltibia 27.75
lfoot -4.04712 -19.5841
ltoes 4.98586
102
root 2.95023 19.3046 3.90885 -211.615 -48.0228 -155.894
lowerback 35.7197 1.28315 -2.96395
upperback 20.4057 -4.24295 -1.15295
thorax 4.60319 -4.39557 1.30679
lowerneck -11.7967 -10.6943 -5.86015
upperneck -0.985024 -17.316 30.762
head 5.33963 -8.55131 8.91568
rclavicle -7.31528e-014 -2.54444e-014
rhumerus -49.2024 -4.05367 -91.9042
rradius 28.7323
rwrist 19.3837
rhand -7.17115 11.4871
rfingers 7.12502
rthumb 18.7062 -17.6335
lclavicle -7.31528e-014 -2.54444e-014
lhumerus 61.2432 -26.3045 84.582
lradius 117.961
lwrist 4.45315
lhand -40.5306 -26.941
lfingers 7.12502
lthumb -13.4792 2.6028
rfemur -87.3504 -8.62943 18.1328
rtibia 120.929
rfoot 8.72871 19.5112
rtoes -22.5308
lfemur -3.09111 -25.4311 -6.20751
ltibia 27.5181
lfoot -4.25913 -19.0764
ltoes 4.40731
103
root 2.91674 19.316 3.90596 -211.047 -47.5308 -156.416
lowerback 35.0813 1.33791 -3.12834
upperback 20.2647 -4.11812 -1.12673
thorax 4.66251 -4.31921 1.37183
lowerneck -11.8467 -10.6033 -5.63156
upperneck -0.73467 -17.2156 30.3718
head 5.33094 -8.46737 8.76029
rclavicle -5.40694e-014 3.81667e-014
rhumerus -49.1539 -3.95996 -91.5636
rradius 28.6916
rwrist 19.2581
rhand -7.23346 11.4853
rfingers 7.12502
rthumb 18.6463 -17.6411
lclavicle -5.40694e-014 3.81667e-014
lhumerus 60.3204 -26.0831 84.8485
lradius 118.069
lwrist 4.58613
lhand -40.3846 -27.0583
lfingers 7.12502
lthumb -13.3385 2.49478
rfemur -86.4722 -8.05645 18.3354
rtibia 120.368
rfoot 8.3309 19.1609
rtoes -22.8899
lfemur -2.78431 -25.2568 -6.43324
ltibia 27.2328
lfoot -4.4274 -18.5997
ltoes 4.07463
104
root 2.88131 19.3281 3.90283 -210.49 -47.0284 -156.952
lowerback 34.4145 1.37495 -3.30473
upperback 20.1171 -4.012 -1.08273
thorax 4.73133 -4.2536 1.46676
lowerneck -11.8761 -10.496 -5.48571
upperneck -0.448088 -17.081 29.9709
head 5.33065 -8.36278 8.62241
rclavicle -3.18055e-015 2.22639e-014
rhumerus -49.1028 -3.70628 -91.2468
rradius 28.6689
rwrist 18.9885
rhand -7.35921 11.5395
rfingers 7.12502
rthumb 18.5253 -17.5984
lclavicle -3.18055e-015 2.22639e-014
lhumerus 59.3131 -25.8026 85.1743
lradius 118.152
lwrist 4.60776
lhand -40.3198 -27.0882
lfingers 7.12502
lthumb -13.2761 2.46892
rfemur -85.5403 -7.52175 18.5263
rtibia 119.806
rfoot 7.95993 18.6958
rtoes -22.723
lfemur -2.42009 -25.0609 -6.68467
ltibia 26.8998
lfoot -4.52232 -18.1493
ltoes 3.91815
105
root 2.84361 19.3421 3.89889 -210.003 -46.4957 -157.471
lowerback 33.7399 1.39962 -3.41413
upperback 19.9845 -3.90553 -1.05784
thorax 4.81954 -4.18263 1.50604
lowerneck -11.8215 -10.3843 -5.29421
upperneck -0.20081 -16.9327 29.5572
head 5.29656 -8.26328 8.47959
rclavicle -1.54257e-013 2.54444e-014
rhumerus -49.0274 -3.53441 -90.9304
rradius 28.6387
rwrist 18.6563
rhand -7.45521 11.629
rfingers 7.12502
rthumb 18.433 -17.5176
lclavicle -1.54257e-013 2.54444e-014
lhumerus 58.2125 -25.5312 85.5002
lradius 118.241
lwrist 4.59332
lhand -40.3217 -27.1704
lfingers 7.12502
lthumb -13.2779 2.38667
rfemur -84.4822 -6.98925 18.7331
rtibia 119.226
rfoot 7.54551 18.1895
rtoes -22.6191
lfemur -1.95694 -24.824 -6.95209
ltibia 26.5139
lfoot -4.64784 -17.7078
ltoes 3.4486
